<svg width="713" height="550" viewBox="0 0 713 550" fill="none" xmlns="http://www.w3.org/2000/svg">
<g clip-path="url(#clip0_76_2918)">
<path opacity="0.2" d="M682.024 313.474C687.218 262.277 717.64 213.942 712.234 162.639C709.584 137.093 698.03 113.244 684.038 91.6199C651.497 41.3768 598.604 -1.44652 538.715 0.037452C491.757 1.20343 449.146 28.975 402.401 34.3809C325.552 43.2847 241.178 -16.7103 167.827 22.0851C114.192 50.4926 72.9583 101.584 58.4365 160.625C52.7126 183.838 51.1227 208.854 59.2845 231.432C68.1884 255.917 87.5861 274.997 108.044 291.003C142.917 318.244 183.09 339.444 212.982 372.091C239.587 401.029 256.971 437.704 284.955 465.158C315.588 495.261 356.822 512.115 398.267 523.669C452.962 538.827 509.671 545.822 566.486 547.624C608.249 548.896 655.843 544.656 681.494 511.797C701.316 486.357 701.74 450.848 696.228 419.048C690.716 387.249 680.222 355.874 681.176 323.65C681.176 320.258 681.494 316.866 681.812 313.474H682.024Z" fill="#E2E6EB"/>
<path d="M197.718 439.612H114.509C111.965 437.916 109.422 436.008 107.09 433.994C105.5 432.51 104.016 431.026 102.85 429.436C102.85 429.436 117.583 429.966 124.261 419.791C131.045 409.615 101.154 426.574 89.8118 419.791C78.682 413.113 59.8144 403.679 57.6944 390.959C57.6944 390.641 57.9064 390.429 58.1184 390.535C61.1924 390.959 77.41 392.867 85.9959 384.599C88.4338 382.267 88.4338 378.345 85.9959 375.907C85.0419 374.953 84.088 373.893 83.558 372.833C82.816 371.561 81.226 371.031 79.954 371.667C71.6862 375.801 48.7905 385.129 35.5407 369.971C19.111 351.316 19.747 353.012 18.051 334.992C16.567 319.41 -8.02458 285.173 -14.7025 276.163C-15.4445 275.209 -14.7025 273.831 -13.5365 273.725C-1.02872 272.877 50.3805 270.227 66.7042 284.113C85.3599 299.906 93.6277 324.286 97.2317 306.16C98.6096 299.27 88.4338 285.279 84.5119 280.297C83.8759 279.555 84.5119 278.389 85.4659 278.283C94.0517 277.859 124.049 277.223 147.475 289.201C147.475 289.201 154.259 299.907 159.877 316.866C165.495 333.826 171.219 320.788 169.523 311.248C168.251 303.722 164.435 296.303 162.951 293.335C162.633 292.805 163.163 292.275 163.693 292.381C167.933 293.441 180.546 297.045 187.118 304.464C193.796 312.096 196.764 404.209 197.612 433.782C197.612 436.008 197.718 437.916 197.718 439.4V439.612Z" fill="#D0D7E1"/>
<path d="M85.1478 336.582C85.4658 336.9 85.5717 337.43 85.3597 337.854C85.1477 338.278 84.7238 338.49 84.1938 338.49C84.0878 338.49 68.5061 336.794 60.2382 338.49C51.7583 340.186 45.6103 340.186 45.2923 340.186C44.6564 340.186 44.1264 339.656 44.1264 339.02C44.1264 338.384 44.6564 337.854 45.2923 337.854C45.2923 337.854 51.5463 337.854 59.7082 336.158C65.8561 334.886 75.6078 335.416 80.8018 335.84C78.1518 333.932 74.6539 332.66 71.05 331.176C66.598 329.374 61.9342 327.572 58.1182 324.604C55.5743 322.59 53.3482 320.576 51.0163 318.456C46.3524 314.216 40.9465 309.34 31.1947 303.298C16.3549 294.183 13.3869 288.353 13.2809 288.141C12.9629 287.611 13.2809 286.869 13.8109 286.657C14.3409 286.339 15.0829 286.657 15.2949 287.187C15.2949 287.187 18.3688 292.805 32.3606 301.39C42.4304 307.538 47.8363 312.52 52.6062 316.866C52.8182 317.078 52.9242 317.184 53.1362 317.29C52.6062 309.552 48.3663 298.317 48.2603 298.211C48.0483 297.681 48.2603 296.939 48.8963 296.727C49.4263 296.515 50.1683 296.727 50.3803 297.363C50.5923 297.893 55.6803 311.248 55.4683 319.304C56.8463 320.47 58.1181 321.636 59.6021 322.802C63.206 325.558 67.6581 327.36 72.004 329.056C77.0919 331.07 81.9678 332.978 85.1478 336.476V336.582ZM195.174 422.441C195.068 422.335 189.026 416.929 180.97 409.827C181.712 407.283 184.15 398.061 183.62 388.203C183.09 376.967 178.214 349.726 178.002 348.56C177.896 347.924 177.26 347.5 176.73 347.606C176.094 347.712 175.67 348.348 175.776 348.878C175.776 349.196 180.864 377.179 181.394 388.309C181.818 396.683 180.016 404.739 179.062 408.131C166.448 397.001 149.595 382.373 141.221 376.225L132.741 342.942C132.635 342.306 131.999 341.988 131.363 342.094C130.727 342.2 130.409 342.836 130.515 343.472L138.359 374.317C124.049 364.141 94.1576 342.518 93.8396 342.306C93.3096 341.988 92.6736 342.094 92.2496 342.518C91.9316 343.048 92.0376 343.684 92.4616 344.108C92.7796 344.32 115.781 360.962 131.045 371.985L112.601 375.483C111.965 375.589 111.541 376.225 111.647 376.755C111.647 377.285 112.177 377.709 112.707 377.709C113.237 377.709 112.813 377.709 112.919 377.709L133.483 373.893C135.391 375.271 137.193 376.543 138.677 377.603C145.037 382.161 157.756 392.973 169.31 403.043L139.525 414.067C138.889 414.279 138.677 414.915 138.889 415.551C139.101 415.975 139.525 416.293 139.949 416.293C140.373 416.293 140.161 416.293 140.373 416.293L171.324 404.845C183.09 415.233 193.266 424.348 193.478 424.56C193.69 424.772 194.008 424.878 194.22 424.878C194.432 424.878 194.856 424.772 195.068 424.454C195.492 424.031 195.492 423.289 195.068 422.865L195.174 422.441Z" fill="white"/>
<path d="M115.357 396.683C115.357 396.683 111.435 401.771 107.407 402.937C103.486 404.103 93.3096 404.633 95.0056 398.379C96.7015 392.125 99.5636 396.153 106.347 395.517C113.131 394.987 115.357 396.683 115.357 396.683ZM112.495 294.501C113.025 293.335 113.661 285.491 107.937 287.717C107.937 287.717 105.711 293.335 107.937 296.727C110.163 300.119 111.859 295.561 112.495 294.501ZM139.101 308.068C137.935 302.451 137.405 293.335 127.229 300.755C127.229 300.755 130.091 314.852 133.483 319.41C136.875 323.968 141.963 329.586 144.825 323.968C147.687 318.35 140.267 313.792 139.207 308.174L139.101 308.068Z" fill="white"/>
<path d="M429.96 112.819V439.612H186.164V112.819C186.164 103.81 193.478 96.3898 202.594 96.3898H413.636C422.646 96.3898 430.066 103.704 430.066 112.819H429.96Z" fill="#012243"/>
<path d="M415.226 121.405V439.612H200.792V121.405C200.792 114.41 207.894 108.792 216.586 108.792H399.538C407.594 108.792 414.272 113.668 415.226 119.921C415.226 120.451 415.332 120.875 415.332 121.405H415.226Z" fill="#E2E6EB"/>
<path d="M238.527 96.3898H372.615V106.248C372.615 115.363 365.301 122.677 356.185 122.677H254.957C245.841 122.677 238.527 115.363 238.527 106.248V96.3898Z" fill="#012243"/>
<path d="M518.257 141.333H464.092C457.067 141.333 451.372 147.028 451.372 154.053V182.248C451.372 189.273 457.067 194.968 464.092 194.968H518.257C525.282 194.968 530.976 189.273 530.976 182.248V154.053C530.976 147.028 525.282 141.333 518.257 141.333Z" fill="#1ABC9C"/>
<path d="M501.085 171.331L484.973 180.659C482.535 182.037 479.462 180.341 479.462 177.479V158.929C479.462 156.067 482.535 154.371 484.973 155.749L501.085 165.077C503.523 166.455 503.523 170.059 501.085 171.437V171.331Z" fill="white"/>
<path d="M537.972 232.916H404.945C396.924 232.916 390.423 239.417 390.423 247.437V281.039C390.423 289.059 396.924 295.561 404.945 295.561H537.972C545.992 295.561 552.494 289.059 552.494 281.039V247.437C552.494 239.417 545.992 232.916 537.972 232.916Z" fill="white"/>
<path d="M522.603 251.465C522.603 248.285 520.059 245.741 516.879 245.741C513.699 245.741 511.155 248.285 511.155 251.465C511.155 254.645 513.699 257.189 516.879 257.189C520.059 257.189 522.603 254.645 522.603 251.465Z" fill="#D0D7E1"/>
<path d="M491.969 257.295L467.272 271.923C466.424 272.453 466.742 273.725 467.802 273.725H517.197C518.151 273.725 518.469 272.453 517.727 271.923L493.029 257.295C492.711 257.083 492.393 257.083 492.075 257.295H491.969Z" fill="#D0D7E1"/>
<path d="M456.248 257.401L423.071 277.011C421.799 277.753 422.329 279.661 423.812 279.661H490.273C491.651 279.661 492.181 277.753 491.015 277.011L457.838 257.401C457.414 257.189 456.884 257.189 456.46 257.401H456.248Z" fill="#D0D7E1"/>
<path d="M505.855 328.314H370.495C364.348 328.314 359.365 333.297 359.365 339.444V373.681C359.365 379.828 364.348 384.811 370.495 384.811H505.855C512.002 384.811 516.985 379.828 516.985 373.681V339.444C516.985 333.297 512.002 328.314 505.855 328.314Z" fill="white"/>
<path d="M503.311 341.882H434.518C433.23 341.882 432.186 342.926 432.186 344.214V348.03C432.186 349.318 433.23 350.362 434.518 350.362H503.311C504.599 350.362 505.643 349.318 505.643 348.03V344.214C505.643 342.926 504.599 341.882 503.311 341.882Z" fill="#D0D7E1"/>
<path d="M503.523 361.703H461.442C460.271 361.703 459.322 362.653 459.322 363.823V368.063C459.322 369.234 460.271 370.183 461.442 370.183H503.523C504.694 370.183 505.643 369.234 505.643 368.063V363.823C505.643 362.653 504.694 361.703 503.523 361.703Z" fill="#D0D7E1"/>
<path d="M413.318 350.044C413.318 352.588 412.364 355.026 410.562 356.934L394.133 374.317C393.179 375.377 391.589 375.377 390.635 374.317L374.205 356.934C372.403 355.026 371.449 352.482 371.449 350.044C371.449 347.606 372.403 345.062 374.205 343.154C377.809 339.338 383.745 339.338 387.349 343.154L391.695 347.818C392.119 348.242 392.755 348.242 393.179 347.818L397.525 343.154C401.129 339.338 407.064 339.338 410.668 343.154C412.47 345.062 413.424 347.606 413.424 350.044H413.318Z" fill="#D0D7E1"/>
<path d="M324.81 191.682H221.674C215.995 191.682 211.392 196.286 211.392 201.964V246.907C211.392 252.586 215.995 257.189 221.674 257.189H324.81C330.488 257.189 335.092 252.586 335.092 246.907V201.964C335.092 196.286 330.488 191.682 324.81 191.682Z" fill="#FDFEFF"/>
<path d="M305.624 206.416H223.369C222.374 206.416 221.568 207.223 221.568 208.218V209.172C221.568 210.167 222.374 210.974 223.369 210.974H305.624C306.619 210.974 307.426 210.167 307.426 209.172V208.218C307.426 207.223 306.619 206.416 305.624 206.416Z" fill="#012243"/>
<path d="M267.253 224.436H223.369C222.374 224.436 221.568 225.243 221.568 226.238V227.192C221.568 228.187 222.374 228.994 223.369 228.994H267.253C268.248 228.994 269.055 228.187 269.055 227.192V226.238C269.055 225.243 268.248 224.436 267.253 224.436Z" fill="#012243"/>
<path d="M694.32 437.598C694.32 439.188 693.048 440.46 691.458 440.46H655.736C654.146 440.46 652.874 439.188 652.874 437.598V436.856C652.874 435.266 654.146 433.994 655.736 433.994H691.458C693.048 433.994 694.32 435.266 694.32 436.856V437.598ZM96.4896 436.962C96.4896 435.372 95.2176 434.1 93.6277 434.1H55.7862C54.1962 434.1 52.9243 435.372 52.9243 436.962V437.704C52.9243 439.294 54.1962 440.566 55.7862 440.566H93.6277C95.2176 440.566 96.4896 439.294 96.4896 437.704V436.962ZM638.883 434.1H105.711C104.121 434.1 102.849 435.266 102.849 436.856C102.849 438.446 103.168 438.234 103.697 438.764C104.227 439.294 104.969 439.4 105.711 439.4H638.883C640.472 439.4 641.744 438.234 641.744 436.644C641.744 435.054 641.427 435.266 640.897 434.736C640.367 434.206 639.625 433.994 638.883 433.994V434.1Z" fill="#022345"/>
<path d="M404.203 141.439H214.042C210.412 141.439 207.47 144.381 207.47 148.011V163.699C207.47 167.328 210.412 170.271 214.042 170.271H404.203C407.832 170.271 410.774 167.328 410.774 163.699V148.011C410.774 144.381 407.832 141.439 404.203 141.439Z" fill="#FDFFFF"/>
<path d="M399.115 160.731L395.193 156.809C396.889 154.477 396.677 151.191 394.663 149.071C393.497 147.905 392.013 147.375 390.423 147.375C388.833 147.375 387.349 148.011 386.183 149.071C385.017 150.237 384.487 151.721 384.487 153.311C384.487 154.901 385.123 156.385 386.183 157.551C387.243 158.717 388.833 159.247 390.317 159.247C391.801 159.247 392.755 158.823 393.815 158.081L397.737 162.003L399.009 160.731H399.115ZM387.773 155.855C387.031 155.113 386.713 154.265 386.713 153.311C386.713 152.357 387.137 151.403 387.773 150.767C388.409 150.131 389.363 149.707 390.317 149.707C391.271 149.707 392.225 150.131 392.861 150.767C394.239 152.145 394.239 154.477 392.861 155.961C391.483 157.339 389.151 157.339 387.667 155.961L387.773 155.855Z" fill="#012243"/>
<path d="M578.994 183.732C578.994 183.732 565.85 183.732 563.942 166.561C563.942 165.713 564.684 165.077 565.532 165.395C569.03 166.879 577.298 168.893 584.188 161.155C593.198 150.979 612.383 157.233 616.411 160.625C620.333 164.017 624.891 168.575 623.725 179.28C623.725 179.28 632.205 191.152 621.499 200.692C610.793 210.338 609.097 215.956 609.097 215.956L579.206 183.732H578.994Z" fill="#1C1246"/>
<path d="M563.73 237.473L552.812 250.935L552.494 249.557V248.921C552.388 248.921 552.388 240.547 552.388 240.547C552.388 238.321 551.434 236.413 549.95 234.929L548.572 235.671C548.572 235.671 548.466 235.671 548.36 235.671C548.254 235.671 548.042 235.883 547.83 235.989C544.65 237.791 537.442 241.183 532.672 240.123C531.082 239.805 530.553 237.685 531.719 236.625L535.216 233.446C535.428 233.234 535.216 232.809 535.004 232.809H517.833L539.562 220.408C540.728 219.772 542.212 219.878 543.272 220.726L563.518 237.367L563.73 237.473Z" fill="#F3B5A5"/>
<path d="M484.125 312.52C484.125 312.52 476.387 309.34 469.497 308.28C467.801 308.068 466.318 307.326 464.94 306.372C461.336 303.616 454.446 298.104 452.432 295.667H470.557C470.769 295.667 470.875 295.454 470.875 295.243L466.742 286.869C466 285.491 466.529 283.795 467.907 282.947C468.967 282.417 470.133 282.417 471.087 283.159C473.101 284.537 476.281 287.505 478.189 292.911C478.295 293.229 478.613 293.547 478.931 293.547C480.627 293.971 486.139 295.666 487.941 298.528L484.019 312.626L484.125 312.52Z" fill="#F3B5A5"/>
<path d="M577.086 419.048L581.008 434.312H623.937C623.937 434.312 612.595 392.549 614.291 369.971L576.98 377.285C576.98 377.285 578.675 418.519 578.146 419.685C577.616 420.851 576.98 419.155 576.98 419.155L577.086 419.048Z" fill="#022345"/>
<path d="M617.683 348.454C617.683 348.454 623.937 367.639 610.899 378.981L600.193 384.069L573.694 434.312H537.548L553.342 348.984L617.683 348.454Z" fill="#06305C"/>
<path d="M553.024 250.405L562.564 235.566C562.988 234.824 563.836 234.506 564.684 234.718C565.85 235.036 567.334 235.778 568.288 238.003V241.925L557.582 255.493C557.582 255.493 555.356 256.659 553.66 254.963C551.964 253.267 553.13 250.405 553.13 250.405H553.024Z" fill="#F5CF75"/>
<path d="M495.997 297.256L490.803 296.514C489.107 296.302 487.411 297.15 486.669 298.634C484.655 302.45 481.581 309.764 483.595 315.276L492.075 316.972L495.997 297.256Z" fill="#F5CF75"/>
<path d="M591.501 226.662C591.501 226.662 583.552 232.916 582.492 241.395C581.326 249.875 553.13 325.028 553.13 325.028C553.13 325.028 551.434 342.518 549.738 347.076C548.042 351.634 550.268 356.085 557.688 352.694C557.688 352.694 590.442 357.251 618.107 352.694L624.361 346.44C624.361 346.44 623.195 336.794 626.057 328.42C628.919 319.94 627.753 245.953 627.753 245.953C627.753 245.953 627.753 227.934 610.263 222.846L597.225 221.15L591.608 226.768L591.501 226.662Z" fill="#FFC300"/>
<path d="M570.514 265.139L557.476 255.917C557.158 255.705 557.052 255.281 557.264 254.963L568.182 238.003H569.348L584.082 245.317L570.514 265.033V265.139Z" fill="#E0AF0D"/>
<path d="M610.687 203.554L611.217 223.27C611.217 223.27 607.295 222.104 599.875 225.496C592.455 228.888 589.17 230.054 589.17 230.054V219.878L586.52 220.938H586.413L582.385 222.528C579.524 223.694 576.238 221.892 575.814 218.818L574.224 208.324C573.588 204.296 573.8 200.268 574.86 196.346L578.358 183.096C578.358 183.096 589.912 184.474 597.649 183.52C599.133 183.308 600.405 184.474 600.511 185.958L600.829 192.318C600.829 193.59 602.419 194.12 603.267 193.272C603.267 193.272 604.857 190.622 607.401 190.622C609.945 190.622 609.097 190.834 610.051 191.576C613.973 194.438 610.581 203.448 610.581 203.448L610.687 203.554Z" fill="#F3B5A5"/>
<path d="M604.963 232.916C604.963 232.916 601.889 230.478 596.271 230.69C590.441 230.902 585.141 234.082 581.855 238.745C581.325 239.487 580.902 240.229 580.478 240.971L550.692 299.482C550.692 299.482 548.996 298.952 548.466 300.648C548.466 300.648 495.891 293.865 494.301 296.091C492.711 298.316 488.683 311.884 490.909 317.502C490.909 317.502 514.547 327.042 561.292 328.102C567.016 328.208 572.316 325.24 575.072 320.152C577.828 315.17 581.962 307.114 588.11 294.289C598.921 271.393 605.493 256.235 608.143 249.769C609.627 246.271 609.945 242.455 609.097 238.851C608.461 236.413 607.295 234.082 605.069 232.704L604.963 232.916Z" fill="#E0AF0D"/>
<path opacity="0.3" d="M572.846 392.973C572.528 392.973 572.104 392.761 571.998 392.337C571.892 391.913 572.104 391.383 572.528 391.277L599.663 382.797C600.087 382.691 600.617 382.903 600.723 383.327C600.829 383.751 600.617 384.281 600.193 384.387L573.058 392.867H572.846V392.973Z" fill="white"/>
<path d="M589.169 225.92V219.878C594.469 217.652 605.493 212.246 607.189 206.31C607.189 206.31 609.945 219.03 589.169 225.92Z" fill="#F28887"/>
<path d="M241.283 376.225H182.136C175.228 376.225 169.628 381.825 169.628 388.733V416.823C169.628 423.73 175.228 429.33 182.136 429.33H241.283C248.191 429.33 253.791 423.73 253.791 416.823V388.733C253.791 381.825 248.191 376.225 241.283 376.225Z" fill="#FF5733"/>
<path d="M230.047 395.093V414.915C230.047 416.081 229.623 416.08 228.351 416.08H207.152C206.622 416.08 205.562 416.398 205.138 416.08L202.382 414.809V418.306C202.382 420.108 202.17 421.38 200.368 421.38H192.1C190.298 421.38 187.542 420.108 187.542 418.306V392.231C187.542 390.429 190.298 388.521 192.1 388.521H200.368C202.17 388.521 202.382 390.429 202.382 392.231V395.941H206.198C206.94 395.941 207.576 395.093 208 394.563L215.844 382.585C216.268 381.949 216.904 381.101 217.646 381.101H220.084C221.462 381.101 222.522 382.691 222.098 384.069L220.401 390.005C219.977 391.383 221.038 392.761 222.416 392.761H228.139C229.305 392.761 229.835 393.927 229.835 395.093H230.047Z" fill="white"/>
</g>
<defs>
<clipPath id="clip0_76_2918">
<rect width="728" height="550" fill="white" transform="translate(-15)"/>
</clipPath>
</defs>
</svg>
