<svg width="125" height="101" viewBox="0 0 125 101" fill="none" xmlns="http://www.w3.org/2000/svg">
<path opacity="0.1" d="M55.52 12.28L32.8 54.52L19.68 58.04C21.1733 55.2667 22.88 52.92 24.8 51C26.9333 49.08 29.1733 48.12 31.52 48.12C37.0667 48.12 42.08 50.4667 46.56 55.16C51.2533 59.8533 53.6 65.72 53.6 72.76C53.6 80.2267 51.04 86.7333 45.92 92.28C40.8 97.6133 34.5067 100.28 27.04 100.28C19.7867 100.28 13.4933 97.6133 8.16 92.28C2.82667 86.9467 0.160001 80.44 0.160001 72.76C0.160001 69.7733 0.800001 66.2533 2.08 62.2C3.36 57.9333 5.70667 52.6 9.12 46.2L33.76 0.759983L55.52 12.28ZM124.32 12.28L101.6 54.52L88.48 58.04C89.9733 55.2667 91.68 52.92 93.6 51C95.52 49.08 97.76 48.12 100.32 48.12C105.867 48.12 110.88 50.4667 115.36 55.16C120.053 59.8533 122.4 65.72 122.4 72.76C122.4 80.2267 119.733 86.7333 114.4 92.28C109.28 97.6133 102.987 100.28 95.52 100.28C88.48 100.28 82.2933 97.6133 76.96 92.28C71.6267 86.9467 68.96 80.44 68.96 72.76C68.96 69.7733 69.6 66.2533 70.88 62.2C72.16 57.9333 74.5067 52.6 77.92 46.2L102.56 0.759983L124.32 12.28Z" fill="#0F8F88"/>
</svg>
