<svg width="165" height="41" viewBox="0 0 165 41" fill="none" xmlns="http://www.w3.org/2000/svg">
<path d="M32.5187 23.2242C31.971 22.4196 31.3196 21.7037 30.5665 21.0725V20.9786H30.455C29.6531 20.3247 28.737 19.7665 27.7075 19.3023C31.0595 17.4858 32.7404 14.6652 32.7404 10.8391C32.7019 7.63186 31.4559 5.02379 29.0115 3.01427C26.5579 1.00476 23.3409 0 19.3603 0H0V40.5848H20.4622C24.7414 40.5848 28.113 39.5513 30.5665 37.474C33.0207 35.3967 34.2472 32.6054 34.2472 29.0982C34.2472 26.8663 33.6682 24.9057 32.5187 23.2242Z" fill="#1ABB9C"/>
<path d="M23.5613 31.4422H13.4407V21.3216H23.5613V31.4422ZM6.40149 14.2824H13.4407V21.3216H6.40149V14.2824ZM18.5812 14.2824H13.4407V9.14258H18.5812V14.2824Z" fill="#FFC300"/>
<path d="M40.9643 26.1037H46.7158C48.8107 26.1037 50.8808 25.4713 50.8808 23.0054C50.8808 20.9391 49.2899 19.8939 46.543 19.8939H40.9643V26.1037ZM46.5026 17.4619C49.0356 17.4619 50.1838 16.5393 50.1838 14.8877C50.1838 12.9154 48.6138 12.2901 46.586 12.2901H40.9643V17.4619H46.5026ZM37.9083 9.8457H47.2309C51.3483 9.8457 53.4042 11.7268 53.4042 14.5715C53.4042 16.8679 51.8823 18.1015 50.4303 18.554C52.1484 19.0339 54.1501 20.2845 54.1501 23.0432C54.1501 26.7297 51.1638 28.5364 47.3104 28.5364H37.9083V9.8457Z" fill="#FFC300"/>
<path d="M57.9584 15.1277C60.6741 21.5194 62.0883 25.1551 62.4547 26.2478H62.505C62.9483 24.9203 64.2374 21.1458 66.6153 15.1277H69.6465L64.5829 27.5584C62.222 33.3705 61.3926 34.7267 57.7289 34.7267C57.2112 34.7267 56.3727 34.6738 55.9 34.5826V32.0756C56.4445 32.1434 56.9837 32.1721 57.3455 32.1721C59.1595 32.1721 59.7873 31.4601 60.8827 29.1232L54.731 15.1277H57.9584Z" fill="#FFC300"/>
<path d="M75.8543 15.1277H79.2552V17.3804H75.8543V24.3087C75.8543 25.749 76.209 26.3939 77.6297 26.3939C78.0138 26.3939 78.5243 26.3795 78.9077 26.2856V28.3969C78.272 28.6081 77.5058 28.6557 76.681 28.6557C73.7763 28.6557 72.9046 27.3693 72.9046 24.7352V17.3804H70.3043V15.1277H72.9046" fill="#FFC300"/>
<path d="M90.8117 20.5391C90.7041 19.0838 89.9301 16.9654 86.8409 16.9654C84.2191 16.9654 83.0038 18.5589 82.7977 20.5391H90.8117ZM82.7449 22.5251C82.8792 24.8665 84.4773 26.6015 87.0228 26.6015C88.9978 26.6015 90.0566 25.8348 90.721 24.6514H93.6584C92.9157 26.7385 90.9916 28.9051 86.91 28.9051C81.9397 28.9051 79.8043 25.3627 79.8043 21.8659C79.8043 17.8828 82.4626 14.7583 86.8552 14.7583C91.9762 14.7583 93.8455 18.4539 93.8455 21.7779C93.8455 22.0315 93.8455 22.2232 93.8338 22.5251H82.7449Z" fill="#FFC300"/>
<path d="M103.442 24.3178H106.21C107.765 24.3178 108.346 23.5803 108.346 22.6838C108.346 21.8929 107.845 21.1281 106.289 21.1281H103.442V24.3178ZM106.316 16.9897C107.607 16.9897 108.081 16.3045 108.081 15.5657C108.081 14.7488 107.475 14.2213 106.289 14.2213H103.442V16.9897H106.316ZM95.639 9.97729H108.715C113.802 9.97729 115.964 12.2711 115.964 14.8276C115.964 17.0425 114.567 18.2553 112.774 18.7821C114.699 19.309 116.755 20.5745 116.755 23.1585C116.755 25.9524 114.804 28.5363 108.793 28.5363H95.639V9.97729Z" fill="#FFC300"/>
<path d="M125.456 21.4448C125.456 23.8963 125.798 24.8978 126.695 24.8978C127.591 24.8978 127.881 23.9492 127.881 21.5765C127.881 19.0193 127.67 18.0967 126.668 18.0967C125.877 18.0967 125.456 18.8347 125.456 21.4448ZM136.079 21.4708C136.079 25.9521 133.048 28.9045 126.563 28.9045C119.603 28.9045 117.362 24.8189 117.362 21.5497C117.362 17.3318 120.236 14.0894 126.721 14.0894C133.233 14.0894 136.079 17.8593 136.079 21.4708Z" fill="#FFC300"/>
<path d="M137.109 9.26587H145.122V28.5362H137.109V9.26587Z" fill="#FFC300"/>
<path d="M154.403 21.4709C154.403 23.1316 154.745 24.3704 155.799 24.3704C156.959 24.3704 157.223 23.29 157.223 21.4448C157.223 19.7313 156.959 18.7024 155.852 18.7024C154.851 18.7024 154.403 19.8102 154.403 21.4709ZM164.947 9.26514V23.4745C164.947 25.1613 164.973 27.6396 165 28.5361H157.118C157.039 28.1143 156.986 27.5868 156.959 27.2438C155.799 28.4833 154.692 28.9313 152.662 28.9313C148.366 28.9313 146.23 25.5571 146.23 21.4709C146.23 16.8051 149.104 14.1161 153.058 14.1161C155.351 14.1161 156.406 14.8281 156.907 15.355V9.26514H164.947Z" fill="#FFC300"/>
<path d="M73.1152 11.3237H75.6425V13.8509H73.1152V11.3237ZM77.4003 11.3237H75.6425V9.56588H77.4003V11.3237ZM74.3593 8.28271H75.6425V9.56588H74.3593V8.28271Z" fill="#FFC300"/>
<path d="M87.0787 39.1838H89.3191C90.2241 39.1838 91.296 38.8265 91.296 37.6529C91.296 37.0556 90.8761 36.7114 90.5136 36.6018C91.0613 36.4845 91.5229 36.0881 91.5151 35.4334C91.5151 34.7814 91.0613 34.2937 90.1223 34.2937H88.1167L87.0787 39.1838ZM88.1976 36.341L88.5366 34.7397H89.9424C90.657 34.7397 90.9595 35.0214 90.9595 35.4752C90.9595 36.122 90.4849 36.341 89.6607 36.341H88.1976ZM88.1037 36.787H89.5251C90.3284 36.787 90.7405 37.1156 90.7405 37.6868C90.7405 38.4901 90.005 38.7431 89.3191 38.7431H87.6916L88.1037 36.787Z" fill="white"/>
<path d="M94.2358 35.634C92.9788 35.634 92.272 36.6434 92.272 37.6866C92.272 38.6203 92.8614 39.2853 93.8368 39.2801C95.1826 39.2801 95.7955 38.263 95.7955 37.2458C95.7955 36.4165 95.2869 35.634 94.2358 35.634ZM94.1733 36.0591C94.9296 36.0591 95.2947 36.6016 95.2947 37.2667C95.2947 38.0308 94.8748 38.8602 93.8916 38.8602C93.2343 38.8602 92.7727 38.3882 92.7727 37.6657C92.7727 36.8285 93.31 36.0591 94.1733 36.0591Z" fill="white"/>
<path d="M96.9296 39.184L98.0198 34.0122H97.5321L96.4341 39.184H96.9296Z" fill="white"/>
<path d="M102.019 34.0122L101.531 36.3282C101.448 36.0674 101.09 35.6344 100.258 35.6344C99.0639 35.6344 98.3024 36.649 98.3024 37.7339C98.3024 38.6493 98.8031 39.2805 99.7446 39.2805C100.438 39.2805 100.788 39.0249 101.043 38.6546C100.994 38.8945 100.96 39.0823 100.947 39.184H101.414C101.474 38.8554 101.544 38.5242 101.612 38.1955L102.504 34.0122H102.019ZM98.8188 37.6948C98.8188 36.8498 99.3612 36.0674 100.24 36.0674C101.103 36.0674 101.495 36.5681 101.289 37.5644C101.145 38.2712 100.699 38.8554 99.8542 38.8554C99.1682 38.8554 98.8188 38.3885 98.8188 37.6948Z" fill="white"/>
<path d="M103.221 39.184L104.311 34.0122H103.823L102.725 39.184H103.221Z" fill="white"/>
<path d="M104.819 35.7307L105.719 39.3977C105.268 40.1253 105.005 40.3522 104.546 40.3522C104.353 40.3522 104.196 40.3235 104.1 40.3027L103.995 40.7565C104.107 40.7904 104.36 40.8191 104.499 40.8191C105.231 40.8191 105.555 40.5843 106.256 39.3898L108.419 35.7307H107.884C106.88 37.4338 106.269 38.524 106.071 38.8682H106.056C105.996 38.537 105.727 37.426 105.323 35.7307H104.819Z" fill="white"/>
<path d="M110.87 39.1836H113.111C114.016 39.1836 115.088 38.8263 115.088 37.6526C115.088 37.0554 114.668 36.7111 114.305 36.6016C114.853 36.4842 115.315 36.0878 115.307 35.4332C115.307 34.7812 114.853 34.2935 113.914 34.2935H111.908L110.87 39.1836ZM111.989 36.3408L112.328 34.7394H113.734C114.449 34.7394 114.751 35.0211 114.751 35.4749C114.751 36.1217 114.276 36.3408 113.452 36.3408H111.989ZM111.895 36.7868H113.317C114.12 36.7868 114.532 37.1154 114.532 37.6866C114.532 38.4898 113.797 38.7428 113.111 38.7428H111.483L111.895 36.7868Z" fill="white"/>
<path d="M119.519 35.7307H119.031L118.715 37.1912C118.473 38.3049 117.993 38.8474 117.211 38.8474C116.496 38.8474 116.462 38.271 116.579 37.7207L117.004 35.7307H116.504L116.058 37.8302C115.844 38.8187 116.311 39.2803 117.072 39.2803C117.876 39.2803 118.178 38.9439 118.434 38.5318C118.379 38.7639 118.324 39.0821 118.316 39.1838H118.809C118.859 38.8943 118.927 38.5735 118.989 38.2631L119.519 35.7307Z" fill="white"/>
<path d="M121.015 34.7602H121.503L121.662 34.0117H121.174L121.015 34.7602ZM120.809 35.7304L120.074 39.1835H120.569L121.305 35.7304H120.809Z" fill="white"/>
<path d="M122.37 39.184L123.46 34.0122H122.972L121.874 39.184H122.37Z" fill="white"/>
<path d="M127.458 34.0122L126.97 36.3282C126.887 36.0674 126.53 35.6344 125.698 35.6344C124.503 35.6344 123.742 36.649 123.742 37.7339C123.742 38.6493 124.242 39.2805 125.184 39.2805C125.878 39.2805 126.227 39.0249 126.483 38.6546C126.433 38.8945 126.399 39.0823 126.386 39.184H126.853C126.913 38.8554 126.983 38.5242 127.051 38.1955L127.943 34.0122H127.458ZM124.258 37.6948C124.258 36.8498 124.8 36.0674 125.679 36.0674C126.543 36.0674 126.934 36.5681 126.728 37.5644C126.584 38.2712 126.138 38.8554 125.293 38.8554C124.607 38.8554 124.258 38.3885 124.258 37.6948Z" fill="white"/>
<path d="M129.099 34.7607H129.587L129.746 34.0122H129.258L129.099 34.7607ZM128.893 35.7309L128.157 39.184H128.653L129.388 35.7309H128.893Z" fill="white"/>
<path d="M129.922 39.1839H130.417L130.746 37.619C130.926 36.7531 131.419 36.0803 132.204 36.0803C132.911 36.0803 133.046 36.5341 132.916 37.1522L132.491 39.1839H132.986L133.411 37.173C133.651 36.0464 133.122 35.6343 132.355 35.6343C131.607 35.6343 131.221 36.0672 131.001 36.4245C131.048 36.1976 131.098 35.9551 131.124 35.7308H130.652C130.602 35.9759 130.535 36.3124 130.472 36.6019L129.922 39.1839Z" fill="white"/>
<path d="M137.978 36.6149C138.041 36.3202 138.116 35.9968 138.179 35.7308H137.697C137.663 35.8325 137.579 36.1272 137.524 36.3541C137.449 36.0255 137.045 35.6343 136.283 35.6343C135.088 35.6343 134.332 36.6697 134.332 37.7416C134.332 38.6831 134.867 39.2256 135.707 39.2256C136.455 39.2256 136.846 38.923 137.086 38.5527L137.037 38.764C136.812 39.755 136.557 40.407 135.548 40.407C134.799 40.407 134.517 40.0706 134.47 39.6429H133.983C133.988 40.0002 134.118 40.8191 135.485 40.8191C136.935 40.8191 137.258 40.0002 137.524 38.7431L137.978 36.6149ZM136.275 36.0672C137.204 36.0672 137.485 36.7192 137.313 37.5225C137.162 38.2423 136.661 38.8005 135.837 38.8005C135.211 38.8005 134.849 38.3936 134.849 37.7207C134.849 36.8157 135.417 36.0672 136.275 36.0672Z" fill="white"/>
<path d="M141.001 39.1838H143.241C144.146 39.1838 145.218 38.8265 145.218 37.6529C145.218 37.0556 144.798 36.7114 144.435 36.6018C144.983 36.4845 145.445 36.0881 145.437 35.4334C145.437 34.7814 144.983 34.2937 144.044 34.2937H142.039L141.001 39.1838ZM142.119 36.341L142.459 34.7397H143.864C144.579 34.7397 144.881 35.0214 144.881 35.4752C144.881 36.122 144.407 36.341 143.583 36.341H142.119ZM142.026 36.787H143.447C144.25 36.787 144.662 37.1156 144.662 37.6868C144.662 38.4901 143.927 38.7431 143.241 38.7431H141.614L142.026 36.787Z" fill="white"/>
<path d="M145.933 39.1839H146.428L146.736 37.7286C146.937 36.7793 147.458 36.1898 148.275 36.1768L148.397 35.6604C147.821 35.6604 147.299 35.9421 146.963 36.555C147.039 36.2185 147.114 35.8325 147.122 35.7308H146.655C146.598 36.0464 146.517 36.4089 146.449 36.7454L145.933 39.1839Z" fill="white"/>
<path d="M151.894 36.9592C152.045 36.2446 151.743 35.6343 150.59 35.6343C149.456 35.6343 149.064 36.1481 148.947 36.6775H149.45C149.573 36.2576 149.881 36.0464 150.541 36.0464C151.378 36.0464 151.495 36.4793 151.406 36.9096L151.378 37.0348C151.099 37.0348 150.574 37.0348 150.293 37.0609C149.703 37.1157 148.446 37.22 148.446 38.2919C148.446 38.7431 148.749 39.2804 149.641 39.2804C150.41 39.2804 150.809 39.0117 151.057 38.6205C151.007 38.8187 150.96 39.0535 150.947 39.1839H151.44C151.453 39.0248 151.529 38.6831 151.646 38.1406L151.894 36.9592ZM151.284 37.5225C151.083 38.3675 150.679 38.8474 149.758 38.8474C149.257 38.8474 148.968 38.6127 148.968 38.2502C148.968 37.6451 149.615 37.5147 150.267 37.4521C150.548 37.426 150.864 37.4182 151.31 37.4182L151.284 37.5225Z" fill="white"/>
<path d="M152.683 39.1839H153.179L153.508 37.619C153.688 36.7531 154.181 36.0803 154.966 36.0803C155.672 36.0803 155.808 36.5341 155.678 37.1522L155.252 39.1839H155.748L156.173 37.173C156.413 36.0464 155.884 35.6343 155.117 35.6343C154.368 35.6343 153.982 36.0672 153.763 36.4245C153.81 36.1976 153.86 35.9551 153.886 35.7308H153.414C153.364 35.9759 153.296 36.3124 153.234 36.6019L152.683 39.1839Z" fill="white"/>
<path d="M160.81 34.0117L160.323 36.3277C160.239 36.0669 159.882 35.6339 159.05 35.6339C157.855 35.6339 157.094 36.6485 157.094 37.7334C157.094 38.6489 157.594 39.28 158.536 39.28C159.23 39.28 159.579 39.0244 159.835 38.6541C159.785 38.894 159.751 39.0818 159.738 39.1835H160.205C160.265 38.8549 160.336 38.5237 160.403 38.1951L161.295 34.0117H160.81ZM157.61 37.6943C157.61 36.8493 158.153 36.0669 159.032 36.0669C159.895 36.0669 160.286 36.5676 160.08 37.5639C159.937 38.2707 159.491 38.8549 158.646 38.8549C157.96 38.8549 157.61 38.3881 157.61 37.6943Z" fill="white"/>
<path d="M161.461 38.0987C161.503 38.8889 162.1 39.2801 163.008 39.2801C163.996 39.2801 164.56 38.8185 164.56 38.1821C164.56 37.6657 164.257 37.3788 163.295 37.1571C162.638 37.0059 162.382 36.8703 162.382 36.5886C162.382 36.2521 162.677 36.0383 163.198 36.0383C163.955 36.0383 164.153 36.4086 164.202 36.7112H164.695C164.695 36.4034 164.51 35.634 163.248 35.634C162.403 35.634 161.873 36.0383 161.873 36.6355C161.873 37.0685 162.113 37.3501 163.076 37.564C163.816 37.7283 164.038 37.9213 164.038 38.2421C164.038 38.649 163.605 38.8811 163.068 38.8811C162.512 38.8811 162.032 38.6959 161.949 38.0987H161.461Z" fill="white"/>
</svg>
