<svg width="20" height="20" viewBox="0 0 20 20" fill="none" xmlns="http://www.w3.org/2000/svg">
<g id="vuesax/bulk/sms">
<g id="sms">
<path id="Vector" d="M14 16.8L6 16.8C3.6 16.8 2 15.6 2 12.8L2 7.19995C2 4.39995 3.6 3.19995 6 3.19995L14 3.19995C16.4 3.19995 18 4.39995 18 7.19995L18 12.8C18 15.6 16.4 16.8 14 16.8Z" fill="white"/>
<g id="Group">
<path id="Vector_2" d="M9.99999 10.696C9.32799 10.696 8.648 10.488 8.128 10.064L5.62399 8.06403C5.36799 7.85603 5.32 7.48002 5.528 7.22402C5.736 6.96802 6.112 6.92003 6.368 7.12803L8.87199 9.12803C9.47999 9.61603 10.512 9.61603 11.12 9.12803L13.624 7.12803C13.88 6.92003 14.264 6.96002 14.464 7.22402C14.672 7.48002 14.632 7.86403 14.368 8.06403L11.864 10.064C11.352 10.488 10.672 10.696 9.99999 10.696Z" fill="#14A59F"/>
</g>
</g>
</g>
</svg>
